HIERARCHY
ROOT Hips
{
	OFFSET	0.00	0.00	0.00
	CHANNELS 6 Xposition Yposition Zposition Zrotation Xrotation Yrotation
	JOINT LeftUpLeg
	{
		OFFSET	 0.126116	-0.014019	-0.065224
		CHANNELS 3 Zrotation Xrotation Yrotation
		JOINT LeftLeg
		{
			OFFSET	 0.000000	 0.000000	 0.569914
			CHANNELS 3 Zrotation Xrotation Yrotation
			JOINT LeftFoot
			{
				OFFSET	 0.000000	 0.000000	 0.544423
				CHANNELS 3 Zrotation Xrotation Yrotation
				JOINT LeftToeBase
				{
					OFFSET	 0.000000	 0.000000	 0.207117
					CHANNELS 3 Zrotation Xrotation Yrotation
					End Site
					{
						OFFSET	 0.000000	 0.000000	 0.207117
					}
				}
			}
		}
	}
	JOINT RightUpLeg
	{
		OFFSET	-0.124023	-0.008373	-0.065224
		CHANNELS 3 Zrotation Xrotation Yrotation
		JOINT RightLeg
		{
			OFFSET	 0.000000	 0.000000	 0.570047
			CHANNELS 3 Zrotation Xrotation Yrotation
			JOINT RightFoot
			{
				OFFSET	 0.000000	 0.000000	 0.544354
				CHANNELS 3 Zrotation Xrotation Yrotation
				JOINT RightToeBase
				{
					OFFSET	 0.000000	 0.000000	 0.207540
					CHANNELS 3 Zrotation Xrotation Yrotation
					End Site
					{
						OFFSET	 0.000000	 0.000000	 0.207540
					}
				}
			}
		}
	}
	JOINT Spine
	{
		OFFSET	 0.000184	-0.007763	 0.117403
		CHANNELS 3 Zrotation Xrotation Yrotation
		JOINT Spine1
		{
			OFFSET	 0.000000	 0.000000	 0.137269
			CHANNELS 3 Zrotation Xrotation Yrotation
			JOINT Spine2
			{
				OFFSET	 0.000000	 0.000000	 0.156879
				CHANNELS 3 Zrotation Xrotation Yrotation
				JOINT LeftShoulder
				{
					OFFSET	 0.080501	-0.002496	 0.160144
					CHANNELS 3 Zrotation Xrotation Yrotation
					JOINT LeftArm
					{
						OFFSET	 0.000000	 0.000000	 0.164363
						CHANNELS 3 Zrotation Xrotation Yrotation
						JOINT LeftForeArm
						{
							OFFSET	 0.000000	 0.000000	 0.364576
							CHANNELS 3 Zrotation Xrotation Yrotation
							JOINT LeftHand
							{
								OFFSET	 0.000000	 0.000000	 0.360812
								CHANNELS 3 Zrotation Xrotation Yrotation
								JOINT LeftHandIndex1
								{
									OFFSET	 0.000000	 0.000000	 0.086006
									CHANNELS 3 Zrotation Xrotation Yrotation
									JOINT LeftHandIndex2
									{
										OFFSET	 0.000000	 0.000000	 0.047237
										CHANNELS 3 Zrotation Xrotation Yrotation
										JOINT LeftHandIndex3
										{
											OFFSET	-0.004284	-0.000551	 0.038165
											CHANNELS 3 Zrotation Xrotation Yrotation
											End Site
											{
												OFFSET	-0.004284	-0.000551	 0.038165
											}
										}
									}
								}
							}
						}
					}
				}
				JOINT Neck
				{
					OFFSET	 0.000000	 0.000000	 0.176489
					CHANNELS 3 Zrotation Xrotation Yrotation
					JOINT Head
					{
						OFFSET	 0.000000	-0.001747	 0.077940
						CHANNELS 3 Zrotation Xrotation Yrotation
						End Site
						{
							OFFSET	 0.000000	-0.001747	 0.077940
						}
					}
				}
				JOINT RightShoulder
				{
					OFFSET	-0.080363	 0.000306	 0.159706
					CHANNELS 3 Zrotation Xrotation Yrotation
					JOINT RightArm
					{
						OFFSET	 0.000000	 0.000000	 0.164196
						CHANNELS 3 Zrotation Xrotation Yrotation
						JOINT RightForeArm
						{
							OFFSET	 0.000000	 0.000000	 0.365611
							CHANNELS 3 Zrotation Xrotation Yrotation
							JOINT RightHand
							{
								OFFSET	 0.000000	 0.000000	 0.360648
								CHANNELS 3 Zrotation Xrotation Yrotation
								JOINT RightHandIndex1
								{
									OFFSET	 0.000000	 0.000000	 0.069977
									CHANNELS 3 Zrotation Xrotation Yrotation
									JOINT RightHandIndex2
									{
										OFFSET	 0.000000	 0.000000	 0.052305
										CHANNELS 3 Zrotation Xrotation Yrotation
										JOINT RightHandIndex3
										{
											OFFSET	 0.009002	-0.000782	 0.042196
											CHANNELS 3 Zrotation Xrotation Yrotation
											End Site
											{
												OFFSET	 0.009002	-0.000782	 0.042196
											}
										}
									}
								}
							}
						}
					}
				}
			}
		}
	}
}
MOTION
Frames:    13
Frame Time: 0.03333334
-0.727795	-0.005976	 1.272378	 179.716700	 0.384113	 1.066377	-31.187930	-3.782757	-177.180500	 9.270622	-13.101710	 1.780166	-23.591280	 71.234140	 1.310829	-2.385833	 28.452760	 0.000004	 26.226700	-3.941943	 175.863000	-9.222713	-11.415590	-1.795982	 17.147540	 70.460040	-0.658514	 2.384659	 28.388700	-0.000001	-5.128288	 3.853173	-0.331310	-2.549384	-2.215354	-5.995117	 7.512770	 4.947399	 7.253863	-91.776250	 78.527360	-179.999900	-8.609169	-10.239970	-1.153748	-8.378587	-3.970256	-21.413450	 9.925570	-9.789809	-5.988419	-4.130354	 21.526190	 0.991307	-5.167926	 0.731697	 3.519349	-1.378229	 35.397820	-2.634230	-0.000002	-3.783157	-0.089647	 1.254488	-4.458595	 0.048836	 89.782100	 78.203820	-180.000000	 5.847364	-6.171402	-2.859358	 5.978068	-3.065438	 27.285760	-3.849840	-13.778080	 22.468220	 5.716295	 19.173350	-3.684826	 5.027458	 0.246833	-9.377971	-2.350882	 35.473990	 5.254307
-0.724675	-0.006099	 1.272092	-177.446100	-5.623245	 0.282963	-16.068770	 4.086004	-175.881200	-3.467909	-9.995840	-0.858055	 10.805840	 72.041870	-22.428430	-2.385833	 28.452760	 0.000004	 15.930360	 4.204712	 174.869500	 1.536090	-9.814116	 0.299495	-14.572360	 71.375620	 22.500110	 2.384659	 28.388700	-0.000001	-4.280232	 6.767984	-0.934049	-1.386184	 9.845001	 1.437711	 2.752186	-8.355264	 0.726046	-91.776120	 78.527420	 180.000000	-21.048640	-3.176140	 0.485482	-13.779700	-2.553736	-29.148670	 0.678740	-17.876030	-2.358166	-4.130354	 21.526190	 0.991307	-5.167926	 0.731697	 3.519349	-1.378229	 35.397820	-2.634230	-7.648300	 0.762380	 3.140927	-3.193282	-16.468430	-3.603931	 89.782030	 78.203920	-180.000000	 9.005412	-6.107449	-3.456197	 7.301680	-2.702650	 30.398080	 23.790640	 46.041610	 28.924270	 5.716295	 19.173350	-3.684826	 5.027458	 0.246833	-9.377971	-2.350882	 35.473990	 5.254307
-0.724594	-0.006105	 1.272102	-177.385300	-5.716312	 0.290629	-15.746650	 4.204520	-175.924500	-3.673971	-10.002480	-0.894678	 11.219410	 71.833500	-22.666210	-2.385833	 28.452760	 0.000004	 15.759050	 4.368061	 174.852000	 1.685233	-9.731002	 0.322218	-14.582000	 71.086250	 22.396220	 2.384659	 28.388700	-0.000001	-4.292843	 6.829694	-0.997704	-1.383658	 9.984570	 1.609301	 2.646236	-8.519666	 0.576102	-91.776240	 78.527400	-179.999900	-21.243910	-2.865854	 0.833862	-13.942550	-2.562831	-29.888610	 0.491077	-18.044060	-2.356721	-4.130354	 21.526190	 0.991307	-5.167926	 0.731697	 3.519349	-1.378229	 35.397820	-2.634230	-7.770123	 0.821524	 3.234640	-3.294883	-16.609650	-3.730577	 89.782090	 78.203900	 180.000000	 9.202906	-5.961492	-3.664389	 7.442540	-2.684279	 31.012780	 24.806130	 47.014920	 28.278860	 5.716295	 19.173350	-3.684826	 5.027458	 0.246833	-9.377971	-2.350882	 35.473990	 5.254307
-0.724077	-0.006145	 1.272160	-177.003200	-6.287245	 0.370676	-13.699800	 4.702887	-176.262300	-4.972677	-10.558730	-1.184228	 13.916370	 70.822500	-24.283290	-2.385833	 28.452760	 0.000004	 14.658710	 5.167829	 174.727200	 2.620759	-9.688667	 0.478539	-14.925610	 69.538270	 22.048700	 2.384659	 28.388700	-0.000001	-4.398697	 7.210872	-1.443534	-1.395044	 10.813650	 2.673648	 1.969266	-9.515878	-0.351093	-91.776180	 78.527400	-180.000000	-22.409170	-0.680906	 3.498986	-14.712850	-2.613517	-35.348580	-0.877242	-19.308990	-2.349833	-4.130354	 21.526190	 0.991307	-5.167926	 0.731697	 3.519349	-1.378229	 35.397820	-2.634230	-8.537805	 1.184279	 3.829497	-3.942208	-17.486640	-4.546664	 89.782160	 78.203890	 180.000000	 10.781000	-4.699704	-5.250614	 8.338846	-2.564168	 35.734260	 33.164950	 52.504630	 21.948550	 5.716295	 19.173350	-3.684826	 5.027458	 0.246833	-9.377971	-2.350882	 35.473990	 5.254307
-0.723571	-0.006202	 1.272154	-176.610500	-6.887895	 0.438431	-11.547480	 5.131705	-176.664100	-6.334731	-11.366460	-1.546113	 16.811300	 69.947570	-26.097460	-2.385833	 28.452760	 0.000004	 13.482360	 5.961864	 174.637900	 3.597212	-9.868131	 0.655216	-15.538930	 68.092320	 21.955680	 2.384659	 28.388700	-0.000001	-4.567834	 7.637920	-1.852791	-1.452345	 11.569330	 3.694366	 1.243038	-10.489310	-1.292892	-91.776180	 78.527420	-180.000000	-23.427060	 2.205387	 7.104058	-15.540420	-2.608929	-42.430900	-2.285283	-20.695870	-2.385840	-4.130354	 21.526190	 0.991307	-5.167926	 0.731697	 3.519349	-1.378229	 35.397820	-2.634230	-9.346248	 1.547981	 4.463914	-4.637341	-18.385790	-5.439919	 89.782070	 78.203850	-180.000000	 13.043100	-2.646723	-7.379180	 9.274229	-2.375940	 42.144470	 46.052010	 56.271190	 10.742370	 5.716295	 19.173350	-3.684826	 5.027458	 0.246833	-9.377971	-2.350882	 35.473990	 5.254307
-0.723564	-0.006278	 1.271902	-176.459300	-6.981205	 0.464144	-11.425820	 4.630746	-176.757200	-6.423943	-12.978770	-1.782172	 17.188220	 70.884450	-26.450640	-2.385833	 28.452760	 0.000004	 13.454120	 5.928729	 174.528800	 3.618705	-10.696070	 0.713575	-15.664630	 68.660000	 22.040980	 2.384659	 28.388700	-0.000001	-5.006058	 7.729663	-1.961617	-1.731896	 11.199510	 3.832327	 1.231442	-10.225010	-1.397169	-91.776080	 78.527400	 179.999900	-22.900390	 6.001547	 12.269970	-15.803420	-3.355387	-52.325960	-2.380103	-20.771140	-2.440979	-4.130354	 21.526190	 0.991307	-5.167926	 0.731697	 3.519349	-1.378229	 35.397820	-2.634230	-9.390749	 1.533893	 4.710377	-4.657501	-18.215670	-5.893874	 89.782100	 78.203890	-180.000000	 12.813530	 0.322044	-10.897690	 9.771119	-2.687338	 51.629220	 48.718470	 51.915130	 8.917118	 5.716295	 19.173350	-3.684826	 5.027458	 0.246833	-9.377971	-2.350882	 35.473990	 5.254307
-0.723637	-0.006361	 1.271512	-176.363100	-6.989101	 0.477653	-11.586260	 3.991869	-176.813000	-6.346038	-14.793240	-2.005677	 17.248120	 72.171020	-26.625220	-2.385833	 28.452760	 0.000004	 13.571570	 5.767934	 174.414800	 3.512666	-11.739070	 0.760551	-15.903020	 69.629650	 22.329390	 2.384659	 28.388700	-0.000001	-5.528734	 7.741986	-2.007772	-2.096209	 10.610370	 3.776024	 1.326432	-9.752161	-1.345272	-91.776180	 78.527400	-180.000000	-22.200670	 10.694630	 17.594940	-16.210020	-4.171840	-62.367050	-2.299775	-20.654610	-2.484056	-4.130354	 21.526190	 0.991307	-5.167926	 0.731697	 3.519349	-1.378229	 35.397820	-2.634230	-9.326919	 1.472160	 4.876288	-4.581727	-17.923950	-6.236530	 89.782140	 78.203890	 180.000000	 11.865410	 4.019708	-14.262130	 10.261410	-3.011086	 61.471610	 48.335870	 46.247070	 9.242680	 5.716295	 19.173350	-3.684826	 5.027458	 0.246833	-9.377971	-2.350882	 35.473990	 5.254307
-0.723800	-0.006454	 1.270965	-176.292800	-6.990115	 0.350684	-11.484320	 3.431913	-176.804100	-6.441083	-16.558120	-2.265967	 17.477070	 73.520970	-26.807090	-2.385833	 28.452760	 0.000004	 13.549530	 5.512169	 174.453100	 3.546862	-13.280670	 0.866613	-17.284350	 70.789660	 23.712720	 2.384659	 28.388700	-0.000001	-6.135777	 7.717733	-1.803421	-2.531377	 9.882905	 3.456494	 1.407761	-9.169865	-1.147766	-91.776180	 78.527380	 180.000000	-21.716120	 16.916510	 23.113990	-16.880720	-4.813268	-72.555170	-2.348375	-20.695520	-2.510277	-4.130354	 21.526190	 0.991307	-5.167926	 0.731697	 3.519349	-1.378229	 35.397820	-2.634230	-9.271111	 1.391372	 4.872088	-4.533675	-17.714690	-6.270322	 89.782150	 78.203920	 180.000000	 10.574140	 9.046466	-17.260000	 10.817280	-3.279355	 71.764450	 47.374030	 40.984990	 9.763326	 5.716295	 19.173350	-3.684826	 5.027458	 0.246833	-9.377971	-2.350882	 35.473990	 5.254307
-0.724040	-0.006588	 1.270007	-176.227600	-6.947820	 0.148474	-11.291760	 2.645900	-176.825500	-6.616204	-19.165770	-2.668427	 17.756110	 75.564900	-26.984220	-2.385833	 28.452760	 0.000004	 13.526800	 5.265151	 174.515700	 3.593879	-15.427820	 1.016094	-19.859340	 72.505140	 26.298850	 2.384659	 28.388700	-0.000001	-7.118998	 7.604863	-1.443461	-3.276561	 8.689004	 2.800813	 1.539155	-8.215694	-0.761730	-91.776220	 78.527380	-180.000000	-20.541860	 28.122380	 29.866400	-17.884710	-5.420656	-84.654450	-2.450439	-20.775810	-2.537785	-4.130354	 21.526190	 0.991307	-5.167926	 0.731697	 3.519349	-1.378229	 35.397820	-2.634230	-9.174821	 1.249102	 4.824281	-4.456711	-17.408950	-6.210600	 89.782100	 78.203870	 180.000000	 7.387970	 18.184450	-19.638850	 11.582630	-3.509162	 84.877000	 42.692780	 33.198250	 11.661480	 5.716295	 19.173350	-3.684826	 5.027458	 0.246833	-9.377971	-2.350882	 35.473990	 5.254307
-0.724220	-0.006673	 1.269280	-176.253100	-6.832688	-0.025631	-11.033280	 2.114593	-176.866100	-6.773252	-20.881970	-2.953758	 17.382440	 76.882900	-26.477910	-2.385833	 28.452760	 0.000004	 13.661470	 5.070967	 174.576900	 3.559427	-16.906680	 1.100700	-22.288140	 73.732150	 28.818190	 2.384659	 28.388700	-0.000001	-7.842403	 7.406794	-1.083106	-3.865397	 7.744650	 2.099400	 1.693020	-7.384055	-0.351659	-91.776180	 78.527380	-180.000000	-19.093390	 37.318360	 32.792190	-18.403230	-5.562644	-90.125130	-2.600020	-20.873610	-2.550183	-4.130354	 21.526190	 0.991307	-5.167926	 0.731697	 3.519349	-1.378229	 35.397820	-2.634230	-9.010211	 1.008010	 4.675713	-4.337452	-17.045420	-5.838732	 89.782140	 78.203870	 180.000000	 3.702346	 25.740980	-19.179810	 12.022400	-3.704559	 91.939930	 36.690460	 28.107320	 13.948740	 5.716295	 19.173350	-3.684826	 5.027458	 0.246833	-9.377971	-2.350882	 35.473990	 5.254307
-0.724363	-0.006783	 1.268415	-176.285100	-6.620291	-0.146773	-10.726160	 1.452183	-177.052900	-6.980704	-23.017710	-3.322248	 16.729020	 78.574850	-25.642600	-2.385833	 28.452760	 0.000004	 13.821350	 4.904158	 174.566100	 3.517702	-18.547250	 1.190563	-25.859510	 75.163990	 32.499040	 2.384659	 28.388700	-0.000001	-8.801044	 7.073288	-0.808635	-4.677010	 6.529288	 1.196706	 1.870525	-6.305186	 0.220823	-91.776180	 78.527400	-180.000000	-15.709870	 49.851670	 32.785220	-18.621460	-5.700154	-92.318020	-2.783609	-20.993430	-2.564965	-4.130354	 21.526190	 0.991307	-5.167926	 0.731697	 3.519349	-1.378229	 35.397820	-2.634230	-8.814742	 0.719535	 4.500380	-4.198224	-16.609990	-5.397899	 89.782120	 78.203850	 180.000000	-3.409150	 36.270510	-14.978600	 12.410730	-3.892945	 97.523010	 26.810020	 22.059380	 17.272710	 5.716295	 19.173350	-3.684826	 5.027458	 0.246833	-9.377971	-2.350882	 35.473990	 5.254307
-0.724433	-0.006916	 1.267510	-176.347200	-6.416985	 0.073531	-10.583360	 0.764295	-177.574200	-7.140844	-25.495860	-3.726595	 17.829020	 80.908870	-26.690470	-2.385833	 28.452760	 0.000004	 13.922050	 5.104001	 174.220400	 3.432299	-19.422050	 1.216085	-28.122120	 76.103630	 34.825150	 2.384659	 28.388700	-0.000001	-9.784707	 6.980813	-1.067176	-5.579839	 4.931730	 0.349278	 2.032479	-4.990623	 0.818671	-91.776160	 78.527430	 180.000000	-8.449862	 62.216370	 25.456190	-18.184810	-5.892675	-87.991850	-2.734334	-20.968000	-2.592432	-4.130354	 21.526190	 0.991307	-5.167926	 0.731697	 3.519349	-1.378229	 35.397820	-2.634230	-8.680247	 0.658876	 4.579714	-4.071194	-16.145350	-5.703700	 89.782100	 78.203900	 180.000000	-15.034110	 46.869220	-4.641028	 12.584120	-4.571852	 98.556050	 14.335110	 16.286760	 21.452810	 5.716295	 19.173350	-3.684826	 5.027458	 0.246833	-9.377971	-2.350882	 35.473990	 5.254307
-0.724535	-0.007103	 1.266528	-176.425500	-6.144789	 0.358549	-10.436730	 0.093042	-178.234200	-7.324001	-28.132430	-4.168887	 20.060950	 83.568550	-28.868110	-2.385833	 28.452760	 0.000004	 14.071290	 5.457463	 173.793400	 3.322422	-20.193040	 1.224311	-30.850180	 77.078110	 37.620760	 2.384659	 28.388700	-0.000001	-10.991050	 6.930169	-1.383928	-6.699363	 2.943428	-0.838614	 2.204536	-3.367723	 1.626283	-91.776180	 78.527350	-180.000000	 9.293502	 72.609600	 1.743784	-16.607740	-5.869164	-73.064540	-2.654596	-20.942710	-2.625725	-4.130354	 21.526190	 0.991307	-5.167926	 0.731697	 3.519349	-1.378229	 35.397820	-2.634230	-8.506715	 0.592472	 4.675026	-3.907140	-15.564730	-6.108197	 89.782100	 78.203900	 180.000000	-36.068240	 55.273820	 17.292200	 12.179070	-5.501270	 92.938550	-0.146350	 9.110534	 27.844150	 5.716295	 19.173350	-3.684826	 5.027458	 0.246833	-9.377971	-2.350882	 35.473990	 5.254307
